<svg width="1200" height="800" viewBox="0 0 1200 800" fill="none" xmlns="http://www.w3.org/2000/svg" role="img" aria-labelledby="title desc">
  <title id="title">CourtTap smartwatch scoring app preview</title>
  <desc id="desc">A smartwatch scoring interface for tennis and padel with one-tap score buttons, match status, undo, and set progress.</desc>
  <rect width="1200" height="800" rx="34" fill="#F2F7F0"/>
  <path d="M230 652C318 574 392 500 452 430C528 342 610 264 736 184" stroke="#DCE5D7" stroke-width="5"/>
  <path d="M206 286C310 330 430 342 566 318C722 290 850 316 1002 396" stroke="#DCE5D7" stroke-width="5"/>
  <rect x="146" y="128" width="908" height="544" rx="36" fill="#FBFBFB" stroke="#D6E1D0" stroke-width="2"/>

  <rect x="230" y="198" width="276" height="404" rx="70" fill="#171717"/>
  <rect x="254" y="222" width="228" height="356" rx="54" fill="#0D1110"/>
  <rect x="284" y="258" width="168" height="34" rx="17" fill="#1E2926"/>
  <text x="318" y="281" fill="#D9E8DE" font-family="Arial, sans-serif" font-size="16" font-weight="700">PADEL</text>
  <text x="304" y="360" fill="#FFFFFF" font-family="Arial, sans-serif" font-size="86" font-weight="700">40</text>
  <text x="386" y="360" fill="#6F8179" font-family="Arial, sans-serif" font-size="42" font-weight="700">30</text>
  <rect x="288" y="398" width="72" height="72" rx="24" fill="#D8F06B"/>
  <path d="M324 420V476M296 448H352" stroke="#171717" stroke-width="8" stroke-linecap="round"/>
  <rect x="376" y="398" width="72" height="72" rx="24" fill="#FFFFFF"/>
  <path d="M412 420V476M384 448H440" stroke="#171717" stroke-width="8" stroke-linecap="round"/>
  <rect x="314" y="502" width="108" height="32" rx="16" fill="#1E2926"/>
  <text x="340" y="524" fill="#D9E8DE" font-family="Arial, sans-serif" font-size="14" font-weight="700">UNDO</text>

  <rect x="586" y="218" width="342" height="126" rx="24" fill="#F4F7F2" stroke="#D6E1D0" stroke-width="2"/>
  <text x="624" y="264" fill="#171717" font-family="Arial, sans-serif" font-size="22" font-weight="700">One-tap scoring</text>
  <text x="624" y="304" fill="#64756E" font-family="Arial, sans-serif" font-size="18">Big targets for sweaty hands and quick glances.</text>
  <rect x="586" y="374" width="342" height="96" rx="24" fill="#171717"/>
  <text x="624" y="430" fill="#FFFFFF" font-family="Arial, sans-serif" font-size="22" font-weight="700">Server, set, tie-break state</text>
  <rect x="586" y="500" width="342" height="76" rx="24" fill="#D8F06B"/>
  <text x="624" y="548" fill="#171717" font-family="Arial, sans-serif" font-size="22" font-weight="700">MVP: score, undo, finish</text>
</svg>
